<svg width="32" height="32" viewBox="0 0 32 32" fill="none" xmlns="http://www.w3.org/2000/svg">
<g clip-path="url(#clip0_405_20125)">
<path d="M16.8958 28.3314C16.7137 28.1266 16.4634 27.8193 16.1447 27.4097C15.8261 27.0455 15.6326 26.7838 15.5643 26.6245C15.3368 26.4879 15.1319 26.3514 14.9498 26.2148C13.9712 25.6003 12.9242 24.7354 11.809 23.6202C11.718 23.4381 11.6269 23.3471 11.5359 23.3471C11.4449 23.3471 11.2742 23.4609 11.0238 23.6885C10.6597 23.825 10.3865 23.9502 10.2045 24.064C9.86307 24.1095 9.64685 24.155 9.55581 24.2006C9.69237 24.2916 9.65823 24.3713 9.45339 24.4395C9.24856 24.5078 9.00958 24.542 8.73647 24.542C8.44059 24.4509 8.24713 24.3371 8.1561 24.2006L8.08782 24.064H8.53163C9.03234 23.9502 9.39649 23.8023 9.62409 23.6202C10.2386 22.9829 11.149 22.0725 12.3552 20.889C12.6284 20.5704 12.9584 20.2063 13.3453 19.7966C13.8915 19.2276 14.3808 18.6586 14.8133 18.0896C15.2685 17.4979 15.4733 17.1792 15.4278 17.1337C15.4278 17.0882 15.3481 17.0768 15.1888 17.0996C15.0295 17.1223 14.7678 17.202 14.4036 17.3385C13.607 17.6117 12.5259 18.2148 11.1604 19.1479C10.7962 19.3755 10.5345 19.5235 10.3752 19.5917C10.2158 19.66 10.0793 19.6942 9.96548 19.6942C9.69237 19.5576 9.44201 19.4211 9.21442 19.2845C9.1689 19.33 9.12338 19.3073 9.07786 19.2162C9.03234 19.1252 8.98682 19.0797 8.9413 19.0797C8.80474 18.9886 8.69095 18.8065 8.59991 18.5334V17.5434C8.91854 17.2703 9.47615 16.8037 10.2727 16.1437C10.2727 16.0982 10.3183 16.0754 10.4093 16.0754C10.4548 16.0754 10.4776 16.1209 10.4776 16.2119C10.3865 16.4851 10.3638 16.6671 10.4093 16.7582C11.0466 16.5306 11.4904 16.3485 11.7407 16.2119C12.4235 15.9388 13.3794 15.6088 14.6084 15.2219C15.405 14.9943 15.9513 14.8009 16.2471 14.6415C16.543 14.4822 16.6909 14.3115 16.6909 14.1294C16.5089 13.7881 16.2358 13.367 15.8716 12.8663C15.7123 12.5704 15.7123 12.3542 15.8716 12.2176C16.8047 11.7169 17.4989 11.4097 17.9541 11.2959C18.4321 11.1593 18.8076 11.1707 19.0807 11.33C19.8773 12.1494 20.3666 12.8663 20.5487 13.4808C20.4121 13.5263 20.4008 13.5946 20.5146 13.6856C20.6284 13.7767 20.8218 13.8222 21.0949 13.8222H21.3339L21.1632 13.7539C21.0266 13.6174 21.0494 13.5491 21.2315 13.5491C21.3453 13.5946 21.4705 13.6401 21.607 13.6856C21.6981 13.6856 21.7663 13.6401 21.8119 13.5491L21.8801 13.4808C22.7222 13.5263 23.3481 13.5491 23.7578 13.5491L24.3382 13.6174C24.9299 14.1863 25.2941 14.5164 25.4306 14.6074C25.5444 14.8805 25.6468 15.1878 25.7379 15.5292V15.8023L25.2941 15.8706C24.9754 15.9616 24.7478 16.0526 24.6113 16.1437C24.4747 16.1892 24.304 16.2006 24.0992 16.1778C23.9171 16.1551 23.5985 16.0754 23.1433 15.9388C21.8688 15.5974 20.8446 15.4836 20.0707 15.5974L19.8318 15.6657C19.7407 16.2575 19.6725 16.6216 19.6269 16.7582C19.5814 16.8037 19.5814 16.8606 19.6269 16.9289C19.718 17.0199 19.809 17.1337 19.9 17.2703C19.9228 17.4523 20.0138 17.5889 20.1732 17.6799C20.3325 17.771 20.5942 17.8848 20.9584 18.0213C22.0736 18.4083 23.2457 18.8293 24.4747 19.2845C24.9754 19.4211 25.3396 19.5576 25.5672 19.6942C25.6355 19.6942 25.7151 19.7283 25.8062 19.7966C25.8972 19.8421 25.9882 19.8649 26.0793 19.8649C26.1703 19.8649 26.2614 19.9104 26.3524 20.0014C26.58 20.0469 26.91 20.1607 27.3424 20.3428C27.7066 20.4794 27.9569 20.5932 28.0935 20.6842C28.6625 20.9573 29.4136 21.3329 30.3467 21.8108C30.3922 21.8563 30.4605 21.9018 30.5515 21.9474C30.8702 22.175 31.1205 22.4139 31.3026 22.6643C31.3026 22.8009 31.2457 22.9147 31.1319 23.0057C31.0181 23.0967 30.8019 23.2105 30.4833 23.3471C30.0736 23.5747 29.7436 23.734 29.4932 23.825H29.2201L28.947 24.064C28.7194 24.2006 28.5487 24.3144 28.4349 24.4054C28.1163 24.542 27.7521 24.5875 27.3424 24.542C27.001 24.542 26.4207 24.5647 25.6013 24.6102L24.7478 24.6785C23.5871 24.1095 22.8588 23.7112 22.5629 23.4836C21.4022 22.4139 20.5146 21.5718 19.9 20.9573L19.5587 20.6159L19.6269 22.596L19.5587 22.6643C19.4676 22.7553 19.4449 22.8691 19.4904 23.0057C19.5359 23.7568 19.5131 25.111 19.4221 27.0683L19.5587 27.3414C19.6497 27.569 19.6611 27.7169 19.5928 27.7852C19.5245 27.8535 19.3311 27.9559 19.0124 28.0925C18.7393 28.1835 18.5459 28.2859 18.4321 28.3997C18.1134 28.7639 17.8858 28.9915 17.7493 29.0825C17.6582 29.037 17.5217 28.9232 17.3396 28.7411C17.1348 28.5135 16.9868 28.377 16.8958 28.3314ZM10.9555 13.6856C11.0921 13.5946 11.1376 13.5263 11.0921 13.4808C11.0466 13.4353 11.001 13.4353 10.9555 13.4808C10.819 13.6174 10.7052 13.6629 10.6141 13.6174C10.8872 13.4353 11.1717 13.276 11.4676 13.1394C11.7863 12.8663 12.1732 12.5363 12.6284 12.1494C12.5828 12.1038 12.5146 12.0811 12.4235 12.0811H12.287L12.4235 11.8762C12.6511 11.6486 12.8446 11.4666 13.0039 11.33C13.1404 11.1252 13.4363 10.7269 13.8915 10.1351C13.9826 9.95306 14.0053 9.78236 13.9598 9.62305C13.9598 9.34993 14.1077 9.09957 14.4036 8.87198C14.5857 8.78094 14.6881 8.71266 14.7109 8.66714C14.7336 8.62162 14.6767 8.59886 14.5402 8.59886C14.1532 8.39403 13.8688 8.04125 13.6867 7.54054C13.6412 7.40398 13.5501 7.31294 13.4136 7.26743C12.9811 8.29161 12.6284 9.20199 12.3552 9.99858L12.0821 10.9545C11.9 11.2504 11.6383 11.4666 11.2969 11.6031C11.0693 11.6486 10.7507 11.7169 10.341 11.808C10.0451 11.8535 9.82893 11.8762 9.69237 11.8762L9.41925 11.4666C9.32822 11.4666 9.2827 11.3755 9.2827 11.1935C9.23718 10.8521 9.19166 10.5448 9.14614 10.2717C9.10062 10.1807 9.14614 10.0213 9.2827 9.79374C9.41925 9.54339 9.62409 9.28165 9.89721 9.00854C10.0565 8.6899 10.2955 8.33713 10.6141 7.95021C10.7962 7.6771 10.8759 7.49502 10.8531 7.40398C10.8303 7.31295 10.7052 7.3357 10.4776 7.47226C10.25 7.60882 10.0793 7.65434 9.96548 7.60882C9.73789 7.5633 9.55581 7.60882 9.41925 7.74538C9.37373 7.7909 9.25994 7.85917 9.07786 7.95021C8.89578 8.04125 8.64543 8.08677 8.32679 8.08677C8.03092 8.08677 7.62124 8.06401 7.09777 8.01849C6.55154 7.92745 5.9029 7.83642 5.15183 7.74538C4.4918 8.10953 4.02523 8.32575 3.75211 8.39403C4.02523 8.05263 4.30972 7.69986 4.6056 7.3357C4.6056 7.24467 4.62836 7.19915 4.67388 7.19915C4.7194 6.99431 4.78767 6.77809 4.87871 6.5505C4.96975 6.50498 5.00389 6.4367 4.98113 6.34566C4.95837 6.25462 4.83319 6.11807 4.6056 5.93599C4.378 5.61735 4.2073 5.35562 4.09351 5.15078C4.00247 5.01422 3.93419 4.85491 3.88867 4.67283V4.46799C4.91285 4.37696 5.55012 4.30868 5.80048 4.26316C6.25567 4.17212 6.745 4.09246 7.26847 4.02418C7.58711 4.02418 7.9285 4.03556 8.29265 4.05832C8.58853 4.14936 8.78198 4.30868 8.87302 4.53627C9.00958 4.80939 9.19166 5.03698 9.41925 5.21906C9.69237 5.35562 9.90858 5.54908 10.0679 5.79943C10.341 6.34566 10.6141 6.76671 10.8872 7.06259C11.0238 6.90327 11.3538 6.19772 11.8773 4.94595L11.7407 4.74111C11.5587 4.51351 11.4449 4.25178 11.3993 3.9559V3.81935H11.5359L11.9456 3.9559C12.9242 4.47938 13.6412 5.07112 14.0964 5.73115C14.1419 5.86771 14.2443 5.89047 14.4036 5.79943C14.7678 5.70839 15.1774 5.64011 15.6326 5.59459C16.0651 5.50356 16.4633 5.4239 16.8275 5.35562C17.0779 5.21906 17.5444 5.10526 18.2272 5.01422C19.1148 4.78663 20.0252 4.60455 20.9584 4.46799C21.2998 4.37696 21.8801 4.26316 22.6995 4.1266C22.9954 4.0128 23.3709 3.88762 23.8261 3.75107H24.2016C24.7934 4.00142 25.2486 4.17212 25.5672 4.26316C26.6141 4.90043 27.388 5.52632 27.8887 6.14083C27.9797 6.27738 28.0935 6.4367 28.2301 6.61878C28.2756 6.80085 28.3439 6.99431 28.4349 7.19915C28.5942 7.60882 28.5942 7.83642 28.4349 7.88194C28.2983 7.88194 28.2073 7.92745 28.1618 8.01849C28.0707 8.15505 27.8432 8.39403 27.479 8.73542C26.5459 8.78094 26.011 8.78094 25.8744 8.73542C25.5331 8.64438 25.0665 8.50782 24.4747 8.32575C24.3382 8.25747 23.6554 8.24609 22.4264 8.29161L22.3581 8.15505C22.3126 8.06401 22.2443 8.01849 22.1533 8.01849C21.7891 8.01849 21.6298 8.08677 21.6753 8.22333V8.32575L22.0167 8.29161C22.1988 8.29161 22.3126 8.30299 22.3581 8.32575C22.3581 8.41678 22.4036 8.4623 22.4946 8.4623C22.5857 8.4623 22.654 8.50782 22.6995 8.59886C22.7678 8.64438 22.8247 8.66714 22.8702 8.66714C22.9157 8.62162 22.9385 8.62162 22.9385 8.66714L23.4847 8.94026C23.9626 9.25889 24.2927 9.56614 24.4747 9.86202C24.6568 10.1807 24.9072 10.6131 25.2258 11.1593C25.2258 11.2276 25.2713 11.33 25.3624 11.4666C25.4079 11.6031 25.4079 11.7397 25.3624 11.8762L25.2941 12.0811H23.8944L23.8261 12.2859C23.735 12.4225 23.5416 12.4452 23.2457 12.3542C22.9498 12.2632 22.6767 12.1266 22.4264 11.9445C22.2443 11.808 22.0395 11.7169 21.8119 11.6714C21.5843 11.6259 21.3908 11.5804 21.2315 11.5349C21.0494 11.4893 20.8901 11.5121 20.7535 11.6031C20.5715 11.6486 20.4804 11.6031 20.4804 11.4666C20.4804 11.3755 20.4577 11.3073 20.4121 11.2617H20.2756L20.3439 11.1935C20.3894 11.1252 20.4577 11.0683 20.5487 11.0228L20.617 10.8862L20.4804 10.8179C20.3894 10.7724 20.3211 10.7041 20.2756 10.6131C20.2756 10.522 20.1732 10.3741 19.9683 10.1693C19.7863 9.96444 19.5359 9.78236 19.2173 9.62305C18.6483 9.30441 18.1589 9.05405 17.7493 8.87198C17.6582 8.82646 17.7037 8.71266 17.8858 8.53058C18.3183 8.28023 19.0466 8.15505 20.0707 8.15505C20.4349 8.20057 20.7308 8.21195 20.9584 8.18919C21.2087 8.16643 21.3225 8.10953 21.2998 8.01849C21.6412 7.51778 22.0167 7.05121 22.4264 6.61878C22.4719 6.52774 22.5174 6.41394 22.5629 6.27738C22.6995 6.14082 22.745 6.04979 22.6995 6.00427C22.654 5.95875 22.4491 5.93599 22.085 5.93599C20.3552 6.02703 18.6028 6.44808 16.8275 7.19915C16.4633 7.38122 16.1902 7.49502 16.0082 7.54054C15.7123 7.63158 15.4505 7.83641 15.223 8.15505C14.9954 8.40541 14.8929 8.55334 14.9157 8.59886C14.9385 8.64438 15.1547 8.66714 15.5643 8.66714H16.1447C16.8503 9.21337 17.2713 9.56615 17.4079 9.72546C17.4079 9.77098 17.4306 9.83926 17.4762 9.9303C17.5217 9.97582 17.5217 10.1807 17.4762 10.5448C17.1348 10.7724 16.9413 10.909 16.8958 10.9545C16.8047 11 16.6682 11.0797 16.4861 11.1935C15.8716 11.5576 15.4164 11.8193 15.1205 11.9787C14.8247 12.138 14.654 12.2632 14.6084 12.3542C14.3581 12.4908 14.0053 12.6615 13.5501 12.8663C12.2983 13.5491 11.388 13.9246 10.819 13.9929C10.7279 13.9246 10.7734 13.8222 10.9555 13.6856ZM3.27416 26.01C3.27416 25.9644 3.2514 25.9189 3.20588 25.8734C2.95553 25.6003 2.80759 25.3613 2.76207 25.1565C2.71655 24.9289 2.64827 24.7013 2.55723 24.4737L2.42068 24.064C2.60275 23.5861 2.71655 23.2788 2.76207 23.1422C2.83035 23.0512 2.87587 22.9147 2.89863 22.7326C2.92139 22.5277 2.97829 21.9815 3.06932 21.0939C3.20588 19.7511 3.31968 18.7041 3.41072 17.9531C3.45624 16.9289 3.50176 15.6543 3.54728 14.1294C3.41072 14.0384 3.17174 13.9815 2.83035 13.9587C1.71513 13.5036 0.929922 12.8321 0.47473 11.9445V11.808H1.29408L1.94272 11.33C2.3524 11.0797 2.72793 10.8634 3.06932 10.6814C3.43348 10.4993 3.66107 10.4083 3.75211 10.4083C4.13903 10.2262 4.6056 10.0669 5.15183 9.9303L5.49322 9.86202L5.5615 10.0669C5.85738 10.2034 6.11911 10.34 6.34671 10.4765L6.48326 10.6131L6.55154 10.5448L6.6881 10.4765L6.75638 10.6814C6.89294 11 7.08639 11.239 7.33675 11.3983C7.42779 11.4438 7.54159 11.5121 7.67814 11.6031L7.8147 11.808L7.67814 12.0811L7.74642 12.2859C7.83746 12.377 7.88298 12.4452 7.88298 12.4908C7.88298 12.559 7.9285 12.5932 8.01954 12.5932C8.1561 12.8208 8.13334 13.0028 7.95126 13.1394C7.63262 13.2304 7.34813 13.3442 7.09777 13.4808C6.9157 13.6174 6.75638 13.7539 6.61982 13.8905C6.48327 13.936 6.06221 14.1522 5.35666 14.5391C5.12907 15.1991 4.96975 15.5519 4.87871 15.5974C4.74216 15.6885 4.65112 15.8478 4.6056 16.0754C4.56008 16.2575 4.51456 16.4623 4.46904 16.6899C4.42352 16.8037 4.378 16.9061 4.33248 16.9972C4.12765 17.8848 4.00247 18.7952 3.95695 19.7283L4.02523 19.9331L3.82039 20.138C3.86591 20.889 3.91143 21.3556 3.95695 21.5377V21.6743L4.09351 21.5377C4.13903 21.4467 4.18455 21.3329 4.23006 21.1963C4.4349 20.8549 4.7194 20.3656 5.08355 19.7283C6.28981 17.1565 7.06363 15.5405 7.40503 14.8805C7.40503 14.744 7.42779 14.7098 7.47331 14.7781C7.51883 14.8464 7.54159 14.9716 7.54159 15.1536L7.60987 15.4267C7.88298 14.835 8.06506 14.4936 8.1561 14.4026C8.20161 14.357 8.20161 14.4026 8.1561 14.5391C7.83746 15.6088 7.46193 16.872 7.02949 18.3286C6.84742 18.8748 6.6881 19.4097 6.55154 19.9331C6.50602 20.3428 6.46051 20.707 6.41499 21.0256C6.36947 21.1394 6.34671 21.2418 6.34671 21.3329C6.34671 21.4239 6.32395 21.4694 6.27843 21.4694C6.14187 21.9701 5.92565 22.7326 5.62978 23.7568C5.58426 23.8023 5.5615 23.8478 5.5615 23.8933C5.51598 24.3713 5.42494 25.0085 5.28839 25.8051L5.15183 26.1465L4.81043 26.0782C4.62836 26.0782 4.4918 26.1238 4.40076 26.2148C4.19592 26.3058 4.00247 26.2831 3.82039 26.1465C3.82039 26.0555 3.79763 26.01 3.75211 26.01C3.66107 26.0555 3.63831 26.1465 3.68383 26.2831C3.72935 26.3741 3.66107 26.3741 3.479 26.2831C3.38796 26.192 3.31968 26.101 3.27416 26.01ZM16.213 24.6785L16.2813 24.4054C16.3268 24.2233 16.3951 24.0868 16.4861 23.9957C16.5316 23.8819 16.5771 23.6657 16.6227 23.3471V22.357C16.6227 21.7653 16.6454 21.1166 16.6909 20.4111V20.0014C15.6668 20.7297 14.9954 21.1963 14.6767 21.4011C14.3353 21.6743 13.937 21.9701 13.4818 22.2888C12.7763 22.7212 12.1959 23.074 11.7407 23.3471C12.1504 23.7112 12.617 24.064 13.1404 24.4054C14.0281 24.633 14.984 24.724 16.0082 24.6785H16.213Z" fill="#C2C5C9"/>
</g>
<defs>
<clipPath id="clip0_405_20125">
<rect width="32" height="32" fill="white"/>
</clipPath>
</defs>
</svg>
